<?xml version="1.0" encoding="utf-8"?>
<!-- Generator: Adobe Illustrator 19.0.0, SVG Export Plug-In . SVG Version: 6.00 Build 0)  -->
<svg version="1.1" id="Layer_1" xmlns="http://www.w3.org/2000/svg" xmlns:xlink="http://www.w3.org/1999/xlink" x="0px" y="0px"
	 viewBox="0 0 612 792" style="enable-background:new 0 0 612 792;" xml:space="preserve">
<style type="text/css">
	.st0{fill:#FFFFFF;}
	.st1{fill:#010101;}
</style>
<g id="XMLID_4_">
	<path id="XMLID_277_" class="st0" d="M613,248.4c0,111.3,0,222.5,0.1,333.8c0,3.3-0.6,3.9-3.9,3.9c-83.5-0.1-166.9-0.1-250.4-0.1
		c0.1-0.8,0.7-0.8,1.4-1c17.3-5.7,23.8-22,19.7-38.1c-3-11.9-18.5-23.8-35.2-20.7c-19.9,3.8-30.7,27.3-20.1,45.4
		c4.4,7.6,11.2,11.4,18.9,14.4c-112.9,0-225.7,0-338.6,0.1c-3.3,0-3.9-0.6-3.9-3.9C1,497.2,1,412.2,1,327.1c0.8,0.1,0.8,0.7,1,1.4
		c6.2,20.3,25.7,28.3,42.8,24.2c22.4-5.4,32.5-30.2,22.6-51.1c-9.7-20.4-39.7-25.1-56-9.3c-5.1,5-7.9,11.2-10.3,17.6
		c0-101.7,0-203.4-0.1-305c0-3.3,0.6-3.9,3.9-3.9C148.7,1,292.6,1,436.5,1c-0.1,0.8-0.7,0.8-1.4,1c-18.4,5.3-28.9,24.1-24.3,42.4
		c5.2,20.6,23.8,31.5,46.1,25c25.3-7.3,31.6-41,13.7-58.7c-4.8-4.8-10.8-7.3-16.9-9.7c51.8,0,103.6,0,155.4-0.1
		c3.3,0,3.9,0.6,3.9,3.9c-0.1,77.4-0.1,154.8-0.1,232.1c-1.1-0.2-0.8-1.1-1-1.8c-4-12.4-13.2-17.6-23.7-18.3
		c-14-0.8-27.9,10.8-27.2,27.1c0.7,16.5,16.3,28.4,33.2,23.8C604.4,265,609.8,257.8,613,248.4z M449.9,531.3
		c-1.1,20.6,16.1,35.1,32.9,35.7c23.6,0.8,37.9-15.9,37.8-35.3c-0.1-19.7-14.2-35.5-35.7-35.6C465.6,496,449.1,511.4,449.9,531.3z
		 M533.8,169.8c17,1.5,29.7-14,30.4-28.1c0.9-17.8-13.4-32.5-30.6-32.3c-16.8,0.2-29.6,13.6-30.1,29.4
		C502.9,156.8,517.8,171.4,533.8,169.8z M399.2,523.7c17.5,1.1,30-13.8,30.7-28.8c0.8-17.7-14.7-31.3-29.4-31.8
		c-17.2-0.6-31.2,14.6-31.4,29.7C368.9,510.1,382.8,524.7,399.2,523.7z M111.2,233.1c-16.3-1.4-28.9,14.1-29.8,27.3
		c-1.4,20.3,15.2,33.2,29.7,33.2c18.3,0,30.5-13.8,31-30.4C142.6,247.1,127.5,231.5,111.2,233.1z M485.4,128.9
		c1.3-16.4-13.9-29.5-28.2-30.3c-19.2-1.1-31.8,15.7-32.4,29.1c-0.7,17.1,14.2,31.2,29.3,31.7C470.4,160.1,487.2,144.6,485.4,128.9z
		 M51.8,189.5c-1.2,17.1,14.1,29.9,28.1,30.4c18.8,0.7,32.3-14.1,32.3-30.1c0.1-17.5-14.3-30-29.4-30.6
		C65.5,158.5,50.7,172.8,51.8,189.5z M154.7,184.2c17.2,0.3,26.2-12.3,26.4-25.8c0.2-14.8-11.1-25.7-25.7-26
		c-15.4-0.3-26.9,11.6-26.6,26.1C129.1,172.9,138.8,184.2,154.7,184.2z M287.3,482.5c-16.5-0.2-26.2,11.7-26.2,25.9
		c0.1,14.6,9.7,25.4,24.8,25.9c16.9,0.6,27.1-11,27.5-25.7C313.8,494.7,302.7,482.3,287.3,482.5z M524.3,244.6
		c16.5,0.1,26-12,26.1-26.1c0.1-14.6-12.2-25.8-26-25.7c-15.6,0.2-26.4,11.2-26.4,25.9C498.1,232.4,507.3,245.1,524.3,244.6z
		 M144.4,66.2c-16.7-0.6-26,12.4-26.2,25.5c-0.3,15.1,12,26.3,25.4,26.3c16,0,26.9-11.5,26.9-25.7C170.6,78.7,161.5,65.7,144.4,66.2
		z M445.9,182.3c-16-0.2-26,10.4-26.3,25.7c-0.3,13.6,9.6,25.8,25.9,26c15.1,0.2,26.2-11.3,26.4-25.9
		C472,193.9,460.5,181.2,445.9,182.3z M159.2,231.7c-1.3,14.7,11.6,26.5,25.4,26.3c15-0.2,26.2-11.4,26.3-25.9
		c0.1-15.2-11.7-25.9-24.5-25.8C169.2,206.3,159.2,215.5,159.2,231.7z M361.6,446.3c1.5-14.5-12.6-25.9-24.1-26.4
		c-16.5-0.8-28,12.4-27.7,26.2c0.3,14.6,11.2,25.4,25.6,25.8C350.4,472.3,362.7,459.8,361.6,446.3z M234.8,576.5
		c14.3,1.5,26.3-12.3,26.2-25.1c-0.1-15.7-12-26.5-25.8-26.7c-15.4-0.3-25.8,12.2-26.4,25.7C208.3,564.1,221.8,578,234.8,576.5z
		 M478.7,282.6c0.7,13.7,9.3,22.3,22.5,22.2c13.7-0.1,21.4-8.4,22.5-21.7c1-12.3-10.2-23.3-22.7-23.1
		C488.3,260.2,478.8,269.8,478.7,282.6z M213.9,499.5c-0.3-12.9-9-22.4-22.1-22.7c-13.2-0.3-22.9,9.5-22.9,21.8
		c0.1,14.6,9.6,22.7,22.9,22.9C204.5,521.6,213.1,513.3,213.9,499.5z M586.1,306.4c1.2-11.8-9.8-22.6-22.3-22.4
		c-12.4,0.2-21.7,11-22.1,21.4c-0.6,13.6,10.9,23.6,22.4,23.6C576.4,329,587.4,318.4,586.1,306.4z M229.3,220.2
		c-1.1,12.4,9.9,22.5,22.2,22.4c12.7-0.2,21.5-10.5,22.1-21.3c0.7-13-10.3-23.7-22.2-23.7C240.5,197.4,227.7,208.1,229.3,220.2z
		 M233.1,80.1c0.6-13.5-10.6-22.6-22.2-22.5c-11.6,0-21.5,9.6-22.2,21.3c-0.9,14.3,11.5,23.9,22.1,23.7
		C222.8,102.4,233.2,93.7,233.1,80.1z M422.7,293.5c12,1.2,22.5-9.9,22.3-21.8c-0.2-12.6-9.6-22.1-21.4-22.5
		c-13.8-0.6-23.6,10.2-23.5,22.3C400.2,283.4,409.4,294.6,422.7,293.5z M270.5,394.1c-1.7,12.7,10.7,22.3,22.1,22.3
		c11.8,0.1,22-10.2,22.2-22.3c0.2-10.5-10-22-21.1-22.3C279.6,371.5,269,382.8,270.5,394.1z M265.7,457.3
		c1.1-13.1-10.2-22.7-21.5-23c-12.9-0.3-22.4,10.3-22.8,21.3c-0.5,13.2,10.4,22.8,22,23.2C256.1,479.3,266.9,468,265.7,457.3z
		 M221.6,124.7c-11.7-1.7-22.5,11.3-22.2,20.3c0.5,14.3,8.7,23.2,21.6,24c11.9,0.8,22.9-11.6,22.9-21.7
		C243.9,133.8,233,123.1,221.6,124.7z M260,149.6c-1.2,10.1,9.3,19.5,18.6,19.3c12.1-0.3,19.3-8.1,19.7-19
		c0.4-10.9-8.4-19.4-19.3-19.5C269.4,130.2,258.4,139.8,260,149.6z M551.6,354.9c0.7-11.7-8-19.5-18.6-19.3
		c-14.1,0.3-19.2,9-19.6,19.1c-0.5,12.5,9.9,16.5,19,21.1c0.2,0.1,0.3,0.5,0.5,0.7c3.5-5.5,11.3-3.8,14.9-9.5
		C550.3,363.2,551.8,359.4,551.6,354.9z M470.1,311.8c-10.5-1.4-19.3,9.1-19.4,18.6c-0.2,13.3,9.7,16.6,18.5,21.5
		c0.2,0.1,0.3,0.5,0.4,0.8c3.3-4.9,10-3.5,13.7-7.5c3.6-4,6-8.8,6-14.2C489.1,319.1,479.5,310.6,470.1,311.8z M249.4,83.1
		c-0.6,12.5,9.3,19.4,18.7,19.3c11.3,0,19.3-8.1,19.5-19.5c0.2-9.8-8.4-18.7-18.4-19C258.6,63.7,247.8,73,249.4,83.1z M391.1,338.6
		c11.1,1.4,19.5-9.1,19.4-19.2c0-10.5-8.7-19.5-19.2-19.1c-11.1,0.4-18.8,7.8-19.3,19C371.7,327.9,380.2,340.1,391.1,338.6z
		 M266.1,361.6c11.4,1.2,19.6-8,19.5-18.5c-0.1-11.5-6.6-18.9-18.8-19.6c-9.4-0.5-19.4,5.5-19.4,18.6
		C247.5,354.5,254.3,361.6,266.1,361.6z M218,386.6c-11.1-1.2-19.6,8.7-19.6,18.4c0,12.3,9.2,19.7,19.1,19.8
		c10.8,0.1,18.7-7,19.3-18.9C237.4,394.3,226.7,385.2,218,386.6z M184.2,448.2c0-11.4-7.9-19.4-19.2-19.5
		c-10.8-0.1-18.9,8.2-19.1,18.6c-0.2,11.4,8.8,19.4,19.5,19.8C174.9,467.6,185.7,457.6,184.2,448.2z M309.5,204.3
		c-12.1,0-19.8,7.1-19.9,18.3c0,14.1,9.3,19.6,19.3,19.7c11.8,0.1,18.8-9.8,19.2-19.4C328.5,214.8,319.1,202.2,309.5,204.3z
		 M205.8,341.5c-8.2-0.7-17.1,7.2-16.8,16.8c0.1,4.5,2,8.2,4.9,11.7c3.2,3.8,8.8,2.8,12,6.6c3.2-4.3,9.6-2.7,12.7-7.5
		c2.2-3.5,3.9-7.2,3.9-11.2C222.4,350.8,216.2,341,205.8,341.5z M331.9,96.2c0.1-10.1-7.9-15.8-16.3-16.4c-9-0.7-17.1,7.6-17.3,16.5
		c-0.2,8.8,8,17,16.9,17C324.8,113.2,332.7,104.5,331.9,96.2z M169.7,400.8c1.3-7.9-6.6-17-15.6-16.9c-9.1,0.1-17,5.5-17.1,16.6
		c-0.1,11.7,9.3,14,16.5,18.7c0.2,0.1,0.4,0.3,0.5,0.5c2.7-4.7,9.3-3.6,12.1-8C168.3,408.4,170.7,404.9,169.7,400.8z M355.8,337.7
		c-10-1.4-16.2,8.6-16.2,16.1c-0.1,9.5,7.1,16.5,16.9,16.5c10.1,0,15.8-7.3,16.6-16.7C373.8,344.3,366.2,337.7,355.8,337.7z
		 M372.2,236.5c-0.1-10.4-7.1-16.8-16.5-16.6c-8.8,0.1-16.2,6.4-16.3,16.5c-0.1,10.5,7.7,16.6,16.4,16.9
		C364.9,253.5,372.8,244.8,372.2,236.5z M270.5,295.8c0-10.2-6.4-16.2-16.1-16.8c-9.1-0.6-16.6,8.3-16.7,16.3
		c-0.1,11.5,8.6,14.4,16.5,18.3c0.2,0.1,0.3,0.4,0.5,0.6c3.1-4.4,9.5-3.2,12.5-8.1C269.4,302.6,271.1,299.4,270.5,295.8z
		 M497.6,404.8c10,0,16.2-6.6,16.6-16.7c0.4-8.2-8.1-16.3-16.5-16c-9.6,0.4-16.2,6.4-16.2,15.6C481.5,398.5,487.4,404.8,497.6,404.8
		z M326.3,146.8c-8-1.2-17.1,7.3-16.7,15.1c0.7,11.1,5.9,17.4,16.2,17.6c9.9,0.2,16.7-7.4,16.6-16.7
		C342.4,153.4,335.8,146.8,326.3,146.8z M450.8,364.3c0-9.7-6.4-16-16-16.2c-9.8-0.2-16.7,7.5-16.6,16.8c0.1,9.1,6.8,15.8,16,15.8
		C444.8,380.8,450.8,374.8,450.8,364.3z M152.6,373.1c8.2,0,14.3-5.9,14.3-13.9c0-8.4-6.4-15.3-14.5-14.7
		c-8.3,0.5-14.3,6.5-14.2,14.4C138.4,365.7,143.1,373.9,152.6,373.1z M348.2,183c-0.9,6.9,4.7,14.2,14.1,14.6
		c7.2,0.3,14.2-6.6,14.6-14.1c0.4-7.3-6.7-14.6-14.2-14.6C354.2,168.8,348.2,174.6,348.2,183z M351.4,130.5
		c9.2,0,14.1-4.7,14.1-13.6c0-9.2-4.7-14.2-13.5-14.2c-9.5,0-14.3,4.6-14.3,13.8C337.7,125.6,342.4,130.5,351.4,130.5z M190.9,316.6
		c0,8.3,5.9,14.5,13.9,14.3c8.4-0.2,14.6-5.9,14.6-14.4c0-8.8-6.6-14.2-14.7-14.3C196.7,302.1,190.9,308.3,190.9,316.6z
		 M399.4,372.2c-9.3-1.2-14.7,7.5-14.7,13.4c0.1,9.4,7.4,14.4,14.2,14.6c8.9,0.4,14.8-8,14.6-14.8
		C413.2,377.8,407.5,372.2,399.4,372.2z M462.3,424c8.4,0,14.7-6,14.4-14.3c-0.3-8.1-6.7-13.8-14.2-13.6c-9.3,0.3-14,5-14.7,13.7
		C447.3,416.9,455,425.3,462.3,424z M377.9,152.5c6.3,0.3,12.5-4.6,12.4-12.3c-0.1-8-4.5-12.4-12.5-12.5
		c-7.7-0.1-12.5,6.1-12.3,12.4C365.6,147.1,370.9,152.5,377.9,152.5z M416.3,421.3c-0.2,6.4,5,12.5,12.6,12.1
		c8.1-0.4,12.1-5.4,12.2-12.9c0.1-6.7-5.2-12-12.3-11.9C421.3,408.7,416.3,413.8,416.3,421.3z M159.8,336.7
		c7.6,0.3,12.5-5.3,12.8-11.9c0.3-6.1-6.3-12.9-12.3-13c-7.1-0.2-12.7,5.4-12.6,12.7C147.8,331.9,152.5,336.7,159.8,336.7z"/>
	<path id="XMLID_276_" class="st1" d="M453.7,1c6.1,2.4,12.1,4.9,16.9,9.7c17.9,17.7,11.6,51.4-13.7,58.7
		c-22.3,6.4-40.9-4.5-46.1-25c-4.6-18.3,5.9-37.1,24.3-42.4c0.6-0.2,1.2-0.2,1.4-1C442.2,1,448,1,453.7,1z"/>
	<path id="XMLID_275_" class="st1" d="M1,309.8c2.5-6.4,5.2-12.6,10.3-17.6c16.4-15.8,46.3-11.1,56,9.3c9.9,20.9-0.2,45.6-22.6,51.1
		c-17.2,4.2-36.6-3.9-42.8-24.2c-0.2-0.6-0.2-1.2-1-1.4C1,321.3,1,315.6,1,309.8z"/>
	<path id="XMLID_274_" class="st1" d="M343.4,586.1c-7.7-3-14.4-6.7-18.9-14.4c-10.5-18.1,0.2-41.6,20.1-45.4
		c16.6-3.2,32.2,8.7,35.2,20.7c4.1,16.1-2.5,32.4-19.7,38.1c-0.6,0.2-1.2,0.2-1.4,1C353.6,586.1,348.5,586.1,343.4,586.1z"/>
	<path id="XMLID_273_" class="st1" d="M613,248.4c-3.2,9.4-8.5,16.5-18.7,19.3c-17,4.6-32.5-7.3-33.2-23.8
		c-0.7-16.3,13.2-28,27.2-27.1c10.5,0.6,19.7,5.8,23.7,18.3c0.2,0.7-0.1,1.6,1,1.8C613,240.8,613,244.6,613,248.4z"/>
	<path id="XMLID_272_" class="st1" d="M449.9,531.3c-0.8-19.9,15.7-35.3,35-35.2c21.5,0.1,35.6,15.9,35.7,35.6
		c0.1,19.4-14.3,36.2-37.8,35.3C466,566.4,448.8,551.9,449.9,531.3z"/>
	<path id="XMLID_271_" class="st1" d="M533.8,169.8c-15.9,1.6-30.9-13-30.3-31c0.5-15.7,13.3-29.2,30.1-29.4
		c17.2-0.2,31.5,14.5,30.6,32.3C563.5,155.8,550.8,171.3,533.8,169.8z"/>
	<path id="XMLID_270_" class="st1" d="M399.2,523.7c-16.3,0.9-30.3-13.6-30-31c0.2-15.1,14.2-30.2,31.4-29.7
		c14.7,0.5,30.2,14.2,29.4,31.8C429.2,510,416.7,524.8,399.2,523.7z"/>
	<path id="XMLID_269_" class="st1" d="M111.2,233.1c16.4-1.6,31.4,14,30.9,30c-0.5,16.6-12.8,30.4-31,30.4
		c-14.5,0-31.2-12.8-29.7-33.2C82.2,247.2,94.9,231.7,111.2,233.1z"/>
	<path id="XMLID_268_" class="st1" d="M485.4,128.9c1.8,15.7-15,31.2-31.3,30.6c-15.1-0.6-30-14.7-29.3-31.7
		c0.6-13.5,13.2-30.2,32.4-29.1C471.5,99.4,486.7,112.5,485.4,128.9z"/>
	<path id="XMLID_267_" class="st1" d="M51.8,189.5c-1.1-16.7,13.7-31,31-30.3c15.1,0.6,29.5,13.1,29.4,30.6
		c-0.1,16-13.6,30.8-32.3,30.1C65.9,219.3,50.6,206.6,51.8,189.5z"/>
	<path id="XMLID_266_" class="st1" d="M154.7,184.2c-16,0.1-25.7-11.3-26-25.7c-0.3-14.5,11.2-26.4,26.6-26.1
		c14.7,0.3,25.9,11.3,25.7,26C180.9,171.9,172,184.5,154.7,184.2z"/>
	<path id="XMLID_265_" class="st1" d="M287.3,482.5c15.4-0.2,26.4,12.2,26.1,26.1c-0.4,14.6-10.6,26.2-27.5,25.7
		c-15-0.5-24.7-11.3-24.8-25.9C261.1,494.2,270.9,482.3,287.3,482.5z"/>
	<path id="XMLID_264_" class="st1" d="M524.3,244.6c-17,0.5-26.2-12.2-26.2-25.9c-0.1-14.7,10.7-25.7,26.4-25.9
		c13.8-0.1,26.1,11.1,26,25.7C550.3,232.6,540.8,244.7,524.3,244.6z"/>
	<path id="XMLID_263_" class="st1" d="M144.4,66.2c17-0.4,26.1,12.5,26.1,26.1c0,14.2-10.9,25.7-26.9,25.7
		c-13.4,0-25.7-11.2-25.4-26.3C118.4,78.6,127.7,65.6,144.4,66.2z"/>
	<path id="XMLID_262_" class="st1" d="M445.9,182.3c14.7-1.1,26.1,11.7,26,25.8c-0.1,14.6-11.2,26.2-26.4,25.9
		c-16.3-0.3-26.2-12.5-25.9-26C419.8,192.6,429.9,182.1,445.9,182.3z"/>
	<path id="XMLID_261_" class="st1" d="M159.2,231.7c0-16.1,10-25.3,27.2-25.4c12.7-0.1,24.6,10.6,24.5,25.8
		c-0.1,14.5-11.3,25.7-26.3,25.9C170.8,258.2,158,246.3,159.2,231.7z"/>
	<path id="XMLID_260_" class="st1" d="M361.6,446.3c1,13.5-11.3,26-26.1,25.6c-14.5-0.4-25.3-11.2-25.6-25.8
		c-0.3-13.8,11.1-27,27.7-26.2C349.1,420.5,363.1,431.8,361.6,446.3z"/>
	<path id="XMLID_259_" class="st1" d="M234.8,576.5c-12.9,1.5-26.5-12.4-25.9-26.1c0.5-13.4,11-25.9,26.4-25.7
		c13.8,0.2,25.7,11,25.8,26.7C261.1,564.2,249.1,578,234.8,576.5z"/>
	<path id="XMLID_258_" class="st1" d="M478.7,282.6c0.2-12.8,9.7-22.4,22.3-22.6c12.5-0.2,23.7,10.8,22.7,23.1
		c-1.1,13.3-8.8,21.6-22.5,21.7C488,304.8,479.4,296.3,478.7,282.6z"/>
	<path id="XMLID_257_" class="st1" d="M213.9,499.5c-0.8,13.8-9.4,22.1-22.1,21.9c-13.3-0.1-22.8-8.3-22.9-22.9
		c0-12.2,9.7-22,22.9-21.8C204.9,477.1,213.6,486.6,213.9,499.5z"/>
	<path id="XMLID_256_" class="st1" d="M586.1,306.4c1.3,12.1-9.7,22.6-22,22.6c-11.5,0-23-10-22.4-23.6c0.5-10.5,9.7-21.2,22.1-21.4
		C576.3,283.8,587.3,294.5,586.1,306.4z"/>
	<path id="XMLID_255_" class="st1" d="M229.3,220.2c-1.6-12.1,11.2-22.7,22.2-22.7c11.9,0.1,22.9,10.7,22.2,23.7
		c-0.6,10.9-9.4,21.2-22.1,21.3C239.2,242.7,228.2,232.6,229.3,220.2z"/>
	<path id="XMLID_254_" class="st1" d="M233.1,80.1c0.1,13.5-10.3,22.3-22.3,22.5c-10.6,0.2-23-9.4-22.1-23.7
		c0.7-11.6,10.6-21.2,22.2-21.3C222.5,57.6,233.7,66.7,233.1,80.1z"/>
	<path id="XMLID_253_" class="st1" d="M422.7,293.5c-13.3,1.1-22.5-10.1-22.6-22c-0.1-12,9.7-22.8,23.5-22.3
		c11.7,0.5,21.1,9.9,21.4,22.5C445.2,283.7,434.7,294.7,422.7,293.5z"/>
	<path id="XMLID_252_" class="st1" d="M270.5,394.1c-1.5-11.3,9.1-22.7,23.2-22.3c11.1,0.3,21.3,11.8,21.1,22.3
		c-0.2,12.1-10.4,22.4-22.2,22.3C281.2,416.4,268.9,406.8,270.5,394.1z"/>
	<path id="XMLID_251_" class="st1" d="M265.7,457.3c1.2,10.6-9.6,22-22.3,21.6c-11.6-0.4-22.5-10-22-23.2
		c0.4-11.1,9.9-21.6,22.8-21.3C255.5,434.6,266.8,444.3,265.7,457.3z"/>
	<path id="XMLID_250_" class="st1" d="M221.6,124.7c11.4-1.6,22.3,9.1,22.3,22.6c0,10.2-11.1,22.5-22.9,21.7
		c-12.9-0.9-21.1-9.7-21.6-24C199.1,136,209.9,123,221.6,124.7z"/>
	<path id="XMLID_249_" class="st1" d="M260,149.6c-1.6-9.8,9.4-19.4,19-19.3c10.9,0.1,19.7,8.7,19.3,19.5
		c-0.4,10.9-7.6,18.7-19.7,19C269.3,169.1,258.8,159.7,260,149.6z"/>
	<path id="XMLID_248_" class="st1" d="M551.6,354.9c0.2,4.5-1.3,8.2-3.7,12.2c-3.7,5.8-11.5,4.1-14.9,9.5c-0.2-0.3-0.3-0.6-0.5-0.7
		c-9.1-4.6-19.5-8.6-19-21.1c0.4-10.1,5.5-18.8,19.6-19.1C543.6,335.5,552.3,343.2,551.6,354.9z"/>
	<path id="XMLID_247_" class="st1" d="M470.1,311.8c9.4-1.2,19,7.4,19.1,19.1c0,5.4-2.4,10.2-6,14.2c-3.6,4.1-10.4,2.6-13.7,7.5
		c-0.1-0.3-0.2-0.7-0.4-0.8c-8.8-4.9-18.7-8.2-18.5-21.5C450.8,320.8,459.5,310.4,470.1,311.8z"/>
	<path id="XMLID_246_" class="st1" d="M249.4,83.1c-1.6-10.1,9.2-19.4,19.8-19.1c10.1,0.3,18.7,9.1,18.4,19
		c-0.3,11.4-8.2,19.5-19.5,19.5C258.7,102.5,248.8,95.6,249.4,83.1z"/>
	<path id="XMLID_245_" class="st1" d="M391.1,338.6c-10.9,1.5-19.4-10.7-19-19.3c0.5-11.2,8.2-18.6,19.3-19
		c10.5-0.4,19.1,8.6,19.2,19.1C410.6,329.5,402.3,340,391.1,338.6z"/>
	<path id="XMLID_244_" class="st1" d="M266.1,361.6c-11.8,0-18.7-7.2-18.7-19.5c0-13,10-19.1,19.4-18.6c12.2,0.7,18.7,8.1,18.8,19.6
		C285.8,353.6,277.5,362.9,266.1,361.6z"/>
	<path id="XMLID_243_" class="st1" d="M218,386.6c8.8-1.4,19.5,7.7,18.9,19.2c-0.6,11.9-8.6,19-19.3,18.9
		c-9.9-0.1-19.1-7.5-19.1-19.8C198.4,395.3,206.8,385.4,218,386.6z"/>
	<path id="XMLID_242_" class="st1" d="M184.2,448.2c1.5,9.4-9.2,19.4-18.7,19c-10.7-0.4-19.7-8.4-19.5-19.8
		c0.2-10.4,8.3-18.7,19.1-18.6C176.3,428.9,184.2,436.8,184.2,448.2z"/>
	<path id="XMLID_241_" class="st1" d="M309.5,204.3c9.5-2.1,19,10.5,18.6,18.7c-0.4,9.6-7.4,19.5-19.2,19.4
		c-10-0.1-19.3-5.6-19.3-19.7C289.7,211.4,297.4,204.3,309.5,204.3z"/>
	<path id="XMLID_240_" class="st1" d="M205.8,341.5c10.4-0.5,16.6,9.3,16.7,16.5c0,4-1.7,7.6-3.9,11.2c-3,4.8-9.5,3.2-12.7,7.5
		c-3.1-3.7-8.8-2.8-12-6.6c-2.9-3.4-4.8-7.2-4.9-11.7C188.7,348.7,197.6,340.8,205.8,341.5z"/>
	<path id="XMLID_239_" class="st1" d="M331.9,96.2c0.8,8.3-7.1,17-16.7,17c-8.9,0-17.1-8.2-16.9-17c0.2-8.9,8.3-17.1,17.3-16.5
		C324,80.4,332,86.1,331.9,96.2z"/>
	<path id="XMLID_238_" class="st1" d="M169.7,400.8c1,4.2-1.5,7.6-3.6,11c-2.8,4.4-9.4,3.3-12.1,8c-0.2-0.2-0.3-0.3-0.5-0.5
		c-7.2-4.7-16.6-7.1-16.5-18.7c0.1-11.1,8-16.5,17.1-16.6C163.2,383.7,171,392.8,169.7,400.8z"/>
	<path id="XMLID_237_" class="st1" d="M355.8,337.7c10.4,0,18,6.6,17.2,15.9c-0.8,9.4-6.4,16.7-16.6,16.7c-9.7,0-16.9-7.1-16.9-16.5
		C339.6,346.2,345.8,336.3,355.8,337.7z"/>
	<path id="XMLID_236_" class="st1" d="M372.2,236.5c0.6,8.3-7.3,17-16.4,16.7c-8.7-0.3-16.5-6.4-16.4-16.9
		c0.1-10.1,7.5-16.4,16.3-16.5C365,219.7,372,226.1,372.2,236.5z"/>
	<path id="XMLID_235_" class="st1" d="M270.5,295.8c0.6,3.6-1.1,6.9-3.3,10.3c-3,4.9-9.5,3.7-12.5,8.1c-0.2-0.2-0.3-0.5-0.5-0.6
		c-7.9-3.9-16.6-6.7-16.5-18.3c0.1-8,7.6-16.9,16.7-16.3C264.1,279.6,270.5,285.5,270.5,295.8z"/>
	<path id="XMLID_234_" class="st1" d="M497.6,404.8c-10.2,0-16.1-6.3-16.1-17.1c0-9.3,6.5-15.2,16.2-15.6c8.4-0.4,16.9,7.8,16.5,16
		C513.8,398.2,507.7,404.8,497.6,404.8z"/>
	<path id="XMLID_233_" class="st1" d="M326.3,146.8c9.5,0,16.1,6.6,16.1,16c0,9.2-6.7,16.9-16.6,16.7c-10.2-0.2-15.5-6.5-16.2-17.6
		C309.2,154.1,318.4,145.5,326.3,146.8z"/>
	<path id="XMLID_232_" class="st1" d="M450.8,364.3c0,10.5-6.1,16.5-16.7,16.5c-9.2,0-15.9-6.7-16-15.8c-0.1-9.3,6.8-17,16.6-16.8
		C444.5,348.4,450.8,354.6,450.8,364.3z"/>
	<path id="XMLID_231_" class="st1" d="M152.6,373.1c-9.5,0.8-14.3-7.4-14.4-14.3c-0.1-7.8,5.9-13.8,14.2-14.4
		c8-0.5,14.4,6.4,14.5,14.7C166.9,367.2,160.9,373.1,152.6,373.1z"/>
	<path id="XMLID_230_" class="st1" d="M348.2,183c0-8.4,6-14.2,14.5-14.2c7.5,0,14.6,7.3,14.2,14.6c-0.4,7.5-7.4,14.4-14.6,14.1
		C352.9,197.2,347.3,190,348.2,183z"/>
	<path id="XMLID_229_" class="st1" d="M351.4,130.5c-8.9,0-13.7-4.9-13.7-14c0-9.2,4.8-13.8,14.3-13.8c8.8,0,13.5,5,13.5,14.2
		C365.5,125.7,360.5,130.5,351.4,130.5z"/>
	<path id="XMLID_228_" class="st1" d="M190.9,316.6c0-8.3,5.8-14.5,13.8-14.4c8.1,0.1,14.6,5.5,14.7,14.3c0,8.5-6.2,14.1-14.6,14.4
		C196.8,331.1,190.9,324.9,190.9,316.6z"/>
	<path id="XMLID_227_" class="st1" d="M399.4,372.2c8.1,0,13.8,5.6,14.1,13.3c0.2,6.8-5.6,15.1-14.6,14.8
		c-6.8-0.3-14.2-5.2-14.2-14.6C384.7,379.6,390.1,371,399.4,372.2z"/>
	<path id="XMLID_226_" class="st1" d="M462.3,424c-7.3,1.3-15-7.1-14.5-14.2c0.7-8.7,5.4-13.4,14.7-13.7c7.5-0.3,13.9,5.5,14.2,13.6
		C477,418,470.6,424,462.3,424z"/>
	<path id="XMLID_225_" class="st1" d="M377.9,152.5c-7,0-12.3-5.4-12.4-12.4c-0.1-6.3,4.6-12.5,12.3-12.4c8,0.1,12.4,4.5,12.5,12.5
		C390.4,147.9,384.2,152.8,377.9,152.5z"/>
	<path id="XMLID_224_" class="st1" d="M416.3,421.3c0-7.6,5-12.6,12.5-12.7c7.2-0.1,12.4,5.2,12.3,11.9c-0.1,7.5-4.1,12.5-12.2,12.9
		C421.3,433.8,416.1,427.7,416.3,421.3z"/>
	<path id="XMLID_223_" class="st1" d="M159.8,336.7c-7.3,0-12-4.8-12.1-12.2c-0.1-7.3,5.5-12.9,12.6-12.7c6,0.1,12.6,6.9,12.3,13
		C172.2,331.4,167.4,337,159.8,336.7z"/>
</g>
</svg>
